<svg width="149" height="72" viewBox="0 0 149 72" fill="none" xmlns="http://www.w3.org/2000/svg">
<g filter="url(#filter0_d)">
<rect x="40" y="12" width="24" height="39" rx="5" fill="white"/>
</g>
<g filter="url(#filter1_d)">
<rect x="10" y="6" width="32" height="52" rx="5" fill="white"/>
</g>
<path d="M74.938 28.196H76.87V29.092H76.898C76.982 28.9707 77.0893 28.8493 77.22 28.728C77.36 28.5973 77.5187 28.4807 77.696 28.378C77.8827 28.2753 78.0833 28.1913 78.298 28.126C78.5127 28.0607 78.7413 28.028 78.984 28.028C79.488 28.028 79.9453 28.1167 80.356 28.294C80.7667 28.462 81.1167 28.7047 81.406 29.022C81.7047 29.33 81.9333 29.6987 82.092 30.128C82.2507 30.5573 82.33 31.0287 82.33 31.542C82.33 32.018 82.2553 32.4753 82.106 32.914C81.966 33.3433 81.7607 33.726 81.49 34.062C81.2287 34.398 80.9067 34.6687 80.524 34.874C80.1413 35.07 79.7073 35.168 79.222 35.168C78.7833 35.168 78.3727 35.1027 77.99 34.972C77.6167 34.832 77.3087 34.5987 77.066 34.272H77.038V38.192H74.938V28.196ZM76.87 31.598C76.87 32.1113 77.0147 32.5267 77.304 32.844C77.6027 33.1613 78.018 33.32 78.55 33.32C79.082 33.32 79.4927 33.1613 79.782 32.844C80.0807 32.5267 80.23 32.1113 80.23 31.598C80.23 31.0847 80.0807 30.6693 79.782 30.352C79.4927 30.0347 79.082 29.876 78.55 29.876C78.018 29.876 77.6027 30.0347 77.304 30.352C77.0147 30.6693 76.87 31.0847 76.87 31.598ZM83.3084 31.598C83.3084 31.0567 83.4064 30.5667 83.6024 30.128C83.7984 29.6893 84.0644 29.316 84.4004 29.008C84.7457 28.6907 85.147 28.448 85.6044 28.28C86.071 28.112 86.5657 28.028 87.0884 28.028C87.611 28.028 88.101 28.112 88.5584 28.28C89.025 28.448 89.4264 28.6907 89.7624 29.008C90.1077 29.316 90.3784 29.6893 90.5744 30.128C90.7704 30.5667 90.8684 31.0567 90.8684 31.598C90.8684 32.1393 90.7704 32.6293 90.5744 33.068C90.3784 33.5067 90.1077 33.8847 89.7624 34.202C89.4264 34.51 89.025 34.748 88.5584 34.916C88.101 35.084 87.611 35.168 87.0884 35.168C86.5657 35.168 86.071 35.084 85.6044 34.916C85.147 34.748 84.7457 34.51 84.4004 34.202C84.0644 33.8847 83.7984 33.5067 83.6024 33.068C83.4064 32.6293 83.3084 32.1393 83.3084 31.598ZM85.4084 31.598C85.4084 32.1113 85.553 32.5267 85.8424 32.844C86.141 33.1613 86.5564 33.32 87.0884 33.32C87.6204 33.32 88.031 33.1613 88.3204 32.844C88.619 32.5267 88.7684 32.1113 88.7684 31.598C88.7684 31.0847 88.619 30.6693 88.3204 30.352C88.031 30.0347 87.6204 29.876 87.0884 29.876C86.5564 29.876 86.141 30.0347 85.8424 30.352C85.553 30.6693 85.4084 31.0847 85.4084 31.598ZM92.1333 24.416H94.2333V35H92.1333V24.416ZM95.77 28.196H97.87V35H95.77V28.196ZM95.602 26.054C95.602 25.718 95.7187 25.4333 95.952 25.2C96.1947 24.9573 96.484 24.836 96.82 24.836C97.156 24.836 97.4407 24.9573 97.674 25.2C97.9167 25.4333 98.038 25.718 98.038 26.054C98.038 26.39 97.9167 26.6793 97.674 26.922C97.4407 27.1553 97.156 27.272 96.82 27.272C96.484 27.272 96.1947 27.1553 95.952 26.922C95.7187 26.6793 95.602 26.39 95.602 26.054ZM104.013 29.876H102.165V32.144C102.165 32.3307 102.174 32.5033 102.193 32.662C102.211 32.8113 102.253 32.942 102.319 33.054C102.384 33.166 102.482 33.2547 102.613 33.32C102.753 33.376 102.935 33.404 103.159 33.404C103.271 33.404 103.415 33.3947 103.593 33.376C103.779 33.348 103.919 33.292 104.013 33.208V34.958C103.779 35.042 103.537 35.098 103.285 35.126C103.033 35.154 102.785 35.168 102.543 35.168C102.188 35.168 101.861 35.1307 101.563 35.056C101.264 34.9813 101.003 34.8647 100.779 34.706C100.555 34.538 100.377 34.3233 100.247 34.062C100.125 33.8007 100.065 33.4833 100.065 33.11V29.876H98.7207V28.196H100.065V26.18H102.165V28.196H104.013V29.876ZM105.108 28.196H107.208V35H105.108V28.196ZM104.94 26.054C104.94 25.718 105.057 25.4333 105.29 25.2C105.533 24.9573 105.822 24.836 106.158 24.836C106.494 24.836 106.779 24.9573 107.012 25.2C107.255 25.4333 107.376 25.718 107.376 26.054C107.376 26.39 107.255 26.6793 107.012 26.922C106.779 27.1553 106.494 27.272 106.158 27.272C105.822 27.272 105.533 27.1553 105.29 26.922C105.057 26.6793 104.94 26.39 104.94 26.054Z" fill="#58CDFF"/>
<path d="M115.465 27.664C115.25 27.4027 114.984 27.202 114.667 27.062C114.359 26.922 113.999 26.852 113.589 26.852C113.178 26.852 112.795 26.9313 112.441 27.09C112.095 27.2487 111.792 27.4727 111.531 27.762C111.279 28.042 111.078 28.378 110.929 28.77C110.789 29.162 110.719 29.5867 110.719 30.044C110.719 30.5107 110.789 30.94 110.929 31.332C111.078 31.7147 111.279 32.0507 111.531 32.34C111.783 32.62 112.077 32.8393 112.413 32.998C112.758 33.1567 113.127 33.236 113.519 33.236C113.967 33.236 114.363 33.1427 114.709 32.956C115.054 32.7693 115.339 32.508 115.563 32.172L117.383 33.53C116.963 34.118 116.431 34.552 115.787 34.832C115.143 35.112 114.48 35.252 113.799 35.252C113.024 35.252 112.31 35.1307 111.657 34.888C111.003 34.6453 110.439 34.3 109.963 33.852C109.487 33.3947 109.113 32.844 108.843 32.2C108.581 31.556 108.451 30.8373 108.451 30.044C108.451 29.2507 108.581 28.532 108.843 27.888C109.113 27.244 109.487 26.698 109.963 26.25C110.439 25.7927 111.003 25.4427 111.657 25.2C112.31 24.9573 113.024 24.836 113.799 24.836C114.079 24.836 114.368 24.864 114.667 24.92C114.975 24.9667 115.273 25.046 115.563 25.158C115.861 25.27 116.146 25.4193 116.417 25.606C116.687 25.7927 116.93 26.0213 117.145 26.292L115.465 27.664ZM122.571 34.146H122.543C122.309 34.51 121.997 34.7713 121.605 34.93C121.222 35.0887 120.816 35.168 120.387 35.168C120.069 35.168 119.761 35.1213 119.463 35.028C119.173 34.944 118.917 34.8133 118.693 34.636C118.469 34.4587 118.291 34.2393 118.161 33.978C118.03 33.7167 117.965 33.4133 117.965 33.068C117.965 32.676 118.035 32.3447 118.175 32.074C118.324 31.8033 118.52 31.5793 118.763 31.402C119.015 31.2247 119.299 31.0893 119.617 30.996C119.934 30.8933 120.261 30.8187 120.597 30.772C120.942 30.7253 121.283 30.6973 121.619 30.688C121.964 30.6787 122.281 30.674 122.571 30.674C122.571 30.3007 122.435 30.0067 122.165 29.792C121.903 29.568 121.591 29.456 121.227 29.456C120.881 29.456 120.564 29.5307 120.275 29.68C119.995 29.82 119.743 30.016 119.519 30.268L118.399 29.12C118.791 28.756 119.248 28.4853 119.771 28.308C120.293 28.1213 120.835 28.028 121.395 28.028C122.011 28.028 122.515 28.1073 122.907 28.266C123.308 28.4153 123.625 28.6393 123.859 28.938C124.101 29.2367 124.269 29.6053 124.363 30.044C124.456 30.4733 124.503 30.9727 124.503 31.542V35H122.571V34.146ZM122.053 32.018C121.894 32.018 121.693 32.0273 121.451 32.046C121.217 32.0553 120.989 32.0927 120.765 32.158C120.55 32.2233 120.363 32.3213 120.205 32.452C120.055 32.5827 119.981 32.7647 119.981 32.998C119.981 33.25 120.088 33.4367 120.303 33.558C120.517 33.6793 120.741 33.74 120.975 33.74C121.18 33.74 121.376 33.712 121.563 33.656C121.759 33.6 121.931 33.5207 122.081 33.418C122.23 33.3153 122.347 33.1847 122.431 33.026C122.524 32.8673 122.571 32.6807 122.571 32.466V32.018H122.053ZM125.82 28.196H127.92V29.288H127.948C128.172 28.868 128.438 28.5553 128.746 28.35C129.054 28.1353 129.441 28.028 129.908 28.028C130.029 28.028 130.151 28.0327 130.272 28.042C130.393 28.0513 130.505 28.07 130.608 28.098V30.016C130.459 29.9693 130.309 29.9367 130.16 29.918C130.02 29.89 129.871 29.876 129.712 29.876C129.311 29.876 128.993 29.932 128.76 30.044C128.527 30.156 128.345 30.3147 128.214 30.52C128.093 30.716 128.013 30.954 127.976 31.234C127.939 31.514 127.92 31.822 127.92 32.158V35H125.82V28.196ZM138.415 35H136.483V34.104H136.455C136.371 34.2253 136.259 34.3513 136.119 34.482C135.989 34.6033 135.83 34.7153 135.643 34.818C135.466 34.9207 135.265 35.0047 135.041 35.07C134.827 35.1353 134.603 35.168 134.369 35.168C133.865 35.168 133.408 35.084 132.997 34.916C132.587 34.7387 132.232 34.496 131.933 34.188C131.644 33.8707 131.42 33.4973 131.261 33.068C131.103 32.6387 131.023 32.1673 131.023 31.654C131.023 31.178 131.093 30.7253 131.233 30.296C131.383 29.8573 131.588 29.47 131.849 29.134C132.12 28.798 132.447 28.532 132.829 28.336C133.212 28.1307 133.646 28.028 134.131 28.028C134.57 28.028 134.976 28.098 135.349 28.238C135.732 28.3687 136.045 28.5973 136.287 28.924H136.315V24.416H138.415V35ZM136.483 31.598C136.483 31.0847 136.334 30.6693 136.035 30.352C135.746 30.0347 135.335 29.876 134.803 29.876C134.271 29.876 133.856 30.0347 133.557 30.352C133.268 30.6693 133.123 31.0847 133.123 31.598C133.123 32.1113 133.268 32.5267 133.557 32.844C133.856 33.1613 134.271 33.32 134.803 33.32C135.335 33.32 135.746 33.1613 136.035 32.844C136.334 32.5267 136.483 32.1113 136.483 31.598ZM143.944 30.198C143.636 29.8153 143.23 29.624 142.726 29.624C142.548 29.624 142.376 29.666 142.208 29.75C142.04 29.834 141.956 29.9787 141.956 30.184C141.956 30.352 142.04 30.478 142.208 30.562C142.385 30.6367 142.604 30.7067 142.866 30.772C143.136 30.828 143.421 30.8933 143.72 30.968C144.028 31.0333 144.312 31.1407 144.574 31.29C144.844 31.4393 145.064 31.6447 145.232 31.906C145.409 32.158 145.498 32.4987 145.498 32.928C145.498 33.3667 145.4 33.7307 145.204 34.02C145.017 34.3 144.774 34.5287 144.476 34.706C144.177 34.874 143.841 34.9907 143.468 35.056C143.094 35.1307 142.726 35.168 142.362 35.168C141.886 35.168 141.405 35.1027 140.92 34.972C140.434 34.832 140.024 34.5893 139.688 34.244L140.962 32.83C141.158 33.0727 141.372 33.2593 141.606 33.39C141.848 33.5113 142.128 33.572 142.446 33.572C142.688 33.572 142.908 33.5393 143.104 33.474C143.3 33.3993 143.398 33.2687 143.398 33.082C143.398 32.9047 143.309 32.774 143.132 32.69C142.964 32.5967 142.744 32.522 142.474 32.466C142.212 32.4007 141.928 32.3353 141.62 32.27C141.321 32.1953 141.036 32.088 140.766 31.948C140.504 31.808 140.285 31.612 140.108 31.36C139.94 31.0987 139.856 30.7533 139.856 30.324C139.856 29.9227 139.935 29.5773 140.094 29.288C140.262 28.9987 140.476 28.7607 140.738 28.574C141.008 28.3873 141.316 28.252 141.662 28.168C142.007 28.0747 142.357 28.028 142.712 28.028C143.16 28.028 143.612 28.0933 144.07 28.224C144.527 28.3547 144.914 28.588 145.232 28.924L143.944 30.198Z" fill="#F87171"/>
<path d="M29.5 25L23 31.5L29.5 38" stroke="#C4C4C4" stroke-width="3"/>
<path d="M50 25L56 31.5L50 38" stroke="#C4C4C4" stroke-width="3"/>
<defs>
<filter id="filter0_d" x="30" y="6" width="44" height="59" filterUnits="userSpaceOnUse" color-interpolation-filters="sRGB">
<feFlood flood-opacity="0" result="BackgroundImageFix"/>
<feColorMatrix in="SourceAlpha" type="matrix" values="0 0 0 0 0 0 0 0 0 0 0 0 0 0 0 0 0 0 127 0"/>
<feOffset dy="4"/>
<feGaussianBlur stdDeviation="5"/>
<feColorMatrix type="matrix" values="0 0 0 0 0 0 0 0 0 0 0 0 0 0 0 0 0 0 0.1 0"/>
<feBlend mode="normal" in2="BackgroundImageFix" result="effect1_dropShadow"/>
<feBlend mode="normal" in="SourceGraphic" in2="effect1_dropShadow" result="shape"/>
</filter>
<filter id="filter1_d" x="0" y="0" width="52" height="72" filterUnits="userSpaceOnUse" color-interpolation-filters="sRGB">
<feFlood flood-opacity="0" result="BackgroundImageFix"/>
<feColorMatrix in="SourceAlpha" type="matrix" values="0 0 0 0 0 0 0 0 0 0 0 0 0 0 0 0 0 0 127 0"/>
<feOffset dy="4"/>
<feGaussianBlur stdDeviation="5"/>
<feColorMatrix type="matrix" values="0 0 0 0 0 0 0 0 0 0 0 0 0 0 0 0 0 0 0.1 0"/>
<feBlend mode="normal" in2="BackgroundImageFix" result="effect1_dropShadow"/>
<feBlend mode="normal" in="SourceGraphic" in2="effect1_dropShadow" result="shape"/>
</filter>
</defs>
</svg>
